<svg xmlns="http://www.w3.org/2000/svg" width="900" height="178" viewBox="0 0 900 178" role="img"><style>text{font-family:ui-monospace,SFMono-Regular,Menlo,monospace}</style><defs><linearGradient id="g" x1="0" y1="0" x2="1" y2="1"><stop stop-color="#17222b"/><stop offset="1" stop-color="#10171e"/></linearGradient></defs><rect x="1" y="1" width="898" height="176" rx="16" fill="url(#g)" stroke="#344550"/><rect x="20" y="20" width="112" height="22" rx="11" fill="#151f28" stroke="#344550"/><text x="76" y="35" text-anchor="middle" fill="#65dfc3" font-size="8" font-weight="700">PRODUCT + OSS</text><text x="20" y="82" fill="#edf4f7" font-size="26" font-weight="700">Image2Studio</text><text x="20" y="111" fill="#9aabb6" font-size="12">Search 1,000 prompt-image pairs. Generate from reusable scenes.</text><text x="20" y="143" fill="#65dfc3" font-size="10">GPT IMAGE 2 · PROMPT SEARCH · AGENT SKILL</text><rect x="702" y="40" width="132" height="96" rx="10" fill="#0c1218" stroke="#334550"/><rect x="717" y="56" width="102" height="10" rx="5" fill="#1d2a33"/><circle cx="726" cy="61" r="3" fill="#65dfc3"/><path d="M718 117l26-29 18 18 16-14 26 25z" fill="#9188ff"/><circle cx="791" cy="78" r="8" fill="#d9ac45"/><path d="M680 89h-39m20-20 19 20-19 20" fill="none" stroke="#65dfc3" stroke-width="2"/><text x="868" y="154" text-anchor="end" fill="#667784" font-size="9">SEARCH LIBRARY ↗</text></svg>
